<svg xmlns="http://www.w3.org/2000/svg" width="1000" height="560" viewBox="0 0 1000 560" role="img" aria-labelledby="title desc">
<title id="title">AniVault Homepage.canvas preview</title>
<desc id="desc">Schematic of the Obsidian canvas dashboard with bases and chart nodes.</desc>
<rect width="1000" height="560" rx="16" fill="#0f1115"/>
<rect x="12" y="12" width="976" height="536" rx="12" fill="none" stroke="#2a2f3a" stroke-width="1.2"/>

<!-- Header -->
<text x="20" y="34" font-family="Segoe UI, Inter, sans-serif" font-size="16" font-weight="700" fill="#e6e8eb">Homepage.canvas — Dashboard</text>
<text x="20" y="52" font-family="Segoe UI, Inter, sans-serif" font-size="11" fill="#9aa0a6">Obsidian Canvas • 6 nodes • 0 edges • Baseline theme • 369 anime</text>

<!-- Bases row -->
<rect x="20" y="72" width="620" height="100" rx="10" fill="#1a1d23" stroke="#2a2f3a"/>
<text x="30" y="90" font-family="Segoe UI, sans-serif" font-size="11" font-weight="600" fill="#8ab4f8">◆ Anime tracker.base — Hall of Fame</text>
<text x="30" y="106" font-family="Segoe UI, sans-serif" font-size="10" fill="#9aa0a6">Table • 369 entries • filtered by Rating ≥ 9</text>
<rect x="30" y="118" width="90" height="14" rx="7" fill="#2a2f3a"/><text x="38" y="128" font-size="9" fill="#cbd0d6" font-family="monospace">Rating ★</text>
<rect x="126" y="118" width="90" height="14" rx="7" fill="#2a2f3a"/><text x="134" y="128" font-size="9" fill="#cbd0d6" font-family="monospace">Studio</text>
<rect x="222" y="118" width="90" height="14" rx="7" fill="#2a2f3a"/><text x="230" y="128" font-size="9" fill="#cbd0d6" font-family="monospace">Genre</text>

<rect x="660" y="72" width="320" height="100" rx="10" fill="#1a1d23" stroke="#2a2f3a"/>
<text x="670" y="90" font-family="Segoe UI, sans-serif" font-size="11" font-weight="600" fill="#8ab4f8">◆ Anime tracker.base — Main</text>
<text x="670" y="106" font-family="Segoe UI, sans-serif" font-size="10" fill="#9aa0a6">Board • Kanban by Type / Status</text>
<rect x="670" y="122" width="300" height="6" rx="3" fill="#2a2f3a"/><rect x="670" y="122" width="210" height="6" rx="3" fill="#8ab4f8"/>

<!-- Graphs row -->
<g id="genres">
  <rect x="20" y="190" width="230" height="170" rx="10" fill="#1a1d23" stroke="#2a2f3a"/>
  <text x="30" y="212" font-family="Segoe UI, sans-serif" font-size="11" font-weight="600" fill="#e6e8eb">Genres</text>
  <text x="30" y="226" font-family="monospace" font-size="9" fill="#7a828e">Genres.md • Doughnut</text>
  <circle cx="135" cy="285" r="48" fill="none" stroke="#2a2f3a" stroke-width="10"/>
  <circle cx="135" cy="285" r="48" fill="none" stroke="#8ab4f8" stroke-width="10" stroke-dasharray="78 226" transform="rotate(-90 135 285)"/>
  <circle cx="135" cy="285" r="48" fill="none" stroke="#f28b82" stroke-width="10" stroke-dasharray="54 226" stroke-dashoffset="-78" transform="rotate(-90 135 285)"/>
  <circle cx="135" cy="285" r="48" fill="none" stroke="#fdd663" stroke-width="10" stroke-dasharray="42 226" stroke-dashoffset="-132" transform="rotate(-90 135 285)"/>
  <text x="135" y="290" text-anchor="middle" font-family="Segoe UI, sans-serif" font-size="16" font-weight="700" fill="#e6e8eb">21</text>
</g>

<g id="themes">
  <rect x="260" y="190" width="230" height="170" rx="10" fill="#1a1d23" stroke="#2a2f3a"/>
  <text x="270" y="212" font-family="Segoe UI, sans-serif" font-size="11" font-weight="600" fill="#e6e8eb">Themes</text>
  <text x="270" y="226" font-family="monospace" font-size="9" fill="#7a828e">Themes.md • Doughnut</text>
  <circle cx="375" cy="285" r="48" fill="none" stroke="#2a2f3a" stroke-width="10"/>
  <circle cx="375" cy="285" r="48" fill="none" stroke="#81c995" stroke-width="10" stroke-dasharray="64 226" transform="rotate(-90 375 285)"/>
  <circle cx="375" cy="285" r="48" fill="none" stroke="#aecbfa" stroke-width="10" stroke-dasharray="48 226" stroke-dashoffset="-64" transform="rotate(-90 375 285)"/>
  <text x="375" y="290" text-anchor="middle" font-family="Segoe UI, sans-serif" font-size="16" font-weight="700" fill="#e6e8eb">52</text>
</g>

<g id="studio">
  <rect x="500" y="190" width="230" height="170" rx="10" fill="#1a1d23" stroke="#2a2f3a"/>
  <text x="510" y="212" font-family="Segoe UI, sans-serif" font-size="11" font-weight="600" fill="#e6e8eb">Studio</text>
  <text x="510" y="226" font-family="monospace" font-size="9" fill="#7a828e">Studio.md • Doughnut</text>
  <circle cx="615" cy="285" r="48" fill="none" stroke="#2a2f3a" stroke-width="10"/>
  <circle cx="615" cy="285" r="48" fill="none" stroke="#d2a8ff" stroke-width="10" stroke-dasharray="70 226" transform="rotate(-90 615 285)"/>
  <circle cx="615" cy="285" r="48" fill="none" stroke="#ff8bcb" stroke-width="10" stroke-dasharray="40 226" stroke-dashoffset="-70" transform="rotate(-90 615 285)"/>
  <text x="615" y="290" text-anchor="middle" font-family="Segoe UI, sans-serif" font-size="16" font-weight="700" fill="#e6e8eb">90</text>
</g>

<g id="rating">
  <rect x="740" y="190" width="240" height="170" rx="10" fill="#1a1d23" stroke="#2a2f3a"/>
  <text x="750" y="212" font-family="Segoe UI, sans-serif" font-size="11" font-weight="600" fill="#e6e8eb">Rating Distribution</text>
  <text x="750" y="226" font-family="monospace" font-size="9" fill="#7a828e">Rating Distribution.md • Bar + Curve</text>
  <!-- mini bars -->
  <rect x="765" y="260" width="14" height="40" rx="3" fill="#2a2f3a"/><rect x="765" y="285" width="14" height="15" rx="3" fill="#8ab4f8"/>
  <rect x="785" y="260" width="14" height="40" rx="3" fill="#2a2f3a"/><rect x="785" y="275" width="14" height="25" rx="3" fill="#8ab4f8"/>
  <rect x="805" y="260" width="14" height="40" rx="3" fill="#2a2f3a"/><rect x="805" y="250" width="14" height="50" rx="3" fill="#8ab4f8"/>
  <rect x="825" y="260" width="14" height="40" rx="3" fill="#2a2f3a"/><rect x="825" y="265" width="14" height="35" rx="3" fill="#8ab4f8"/>
  <rect x="845" y="260" width="14" height="40" rx="3" fill="#2a2f3a"/><rect x="845" y="280" width="14" height="20" rx="3" fill="#8ab4f8"/>
  <rect x="865" y="260" width="14" height="40" rx="3" fill="#2a2f3a"/><rect x="865" y="290" width="14" height="10" rx="3" fill="#8ab4f8"/>
  <rect x="885" y="260" width="14" height="40" rx="3" fill="#2a2f3a"/><rect x="885" y="295" width="14" height="5" rx="3" fill="#8ab4f8"/>
  <text x="860" y="330" font-family="monospace" font-size="8" fill="#7a828e">1 — 10 ★</text>
</g>

<!-- Footer legend -->
<rect x="20" y="380" width="960" height="92" rx="10" fill="#1a1d23" stroke="#2a2f3a"/>
<text x="30" y="400" font-family="Segoe UI, sans-serif" font-size="10" font-weight="600" fill="#9aa0a6">CANVAS LEGEND</text>
<text x="30" y="418" font-family="monospace" font-size="9" fill="#cbd0d6">◼ Bases: Anime tracker.base (Hall of Fame + Main) • Bases: 7 total</text>
<text x="30" y="432" font-family="monospace" font-size="9" fill="#cbd0d6">◼ Graphs: Genres (21) • Themes (52) • Studio (90) • Rating Distribution — all dv.pages('"Anime"')</text>
<text x="30" y="446" font-family="monospace" font-size="9" fill="#7a828e">Open in Obsidian → Homepage.canvas • Theme: Baseline 3.2.12 • 369 notes • .obsidian/app.json → openBehavior: file:Homepage.canvas</text>

<!-- Watermark -->
<text x="980" y="540" text-anchor="end" font-family="monospace" font-size="7" fill="#4a4f5a">AniVault • preview generated 2026-08-31 • not a screenshot — schematic</text>
</svg>
